<mxfile host="app.diagrams.net" agent="Mozilla/5.0 (Windows NT 10.0; Win64; x64) AppleWebKit/537.36 (KHTML, like Gecko) Chrome/135.0.0.0 Safari/537.36 Edg/135.0.0.0" version="26.2.9">
  <diagram name="Page-1" id="efa7a0a1-bf9b-a30e-e6df-94a7791c09e9">
    <mxGraphModel dx="2275" dy="1997" grid="1" gridSize="10" guides="1" tooltips="1" connect="1" arrows="1" fold="1" page="1" pageScale="1" pageWidth="827" pageHeight="1169" background="none" math="0" shadow="0">
      <root>
        <mxCell id="0" />
        <mxCell id="1" parent="0" />
        <mxCell id="cm0d4Y98Hce47HyUnUgf-143" style="edgeStyle=orthogonalEdgeStyle;rounded=0;orthogonalLoop=1;jettySize=auto;html=1;exitX=1;exitY=0.5;exitDx=0;exitDy=0;entryX=0.5;entryY=0;entryDx=0;entryDy=0;strokeColor=#7F00FF;fontColor=#095C86;fillColor=#F694C1;endArrow=none;startFill=0;" parent="1" source="cm0d4Y98Hce47HyUnUgf-223" target="cm0d4Y98Hce47HyUnUgf-198" edge="1">
          <mxGeometry relative="1" as="geometry">
            <mxPoint x="1012.5" y="120" as="sourcePoint" />
            <mxPoint x="1280" y="110" as="targetPoint" />
            <Array as="points">
              <mxPoint x="1300" y="398" />
              <mxPoint x="1300" y="250" />
              <mxPoint x="1440" y="250" />
              <mxPoint x="1440" y="290" />
            </Array>
          </mxGeometry>
        </mxCell>
        <mxCell id="36" value="" style="endArrow=open;endSize=12;startArrow=diamondThin;startSize=14;startFill=0;edgeStyle=orthogonalEdgeStyle;labelBackgroundColor=none;strokeColor=#7F00FF;fontColor=default;exitX=0;exitY=0.5;exitDx=0;exitDy=0;entryX=0.25;entryY=0;entryDx=0;entryDy=0;" parent="1" source="cm0d4Y98Hce47HyUnUgf-211" target="cm0d4Y98Hce47HyUnUgf-231" edge="1">
          <mxGeometry y="160" as="geometry">
            <mxPoint x="494" y="178.3599999999999" as="sourcePoint" />
            <mxPoint x="390" y="302.5" as="targetPoint" />
            <Array as="points">
              <mxPoint x="260" y="28" />
              <mxPoint x="260" y="205" />
              <mxPoint x="427" y="205" />
            </Array>
          </mxGeometry>
        </mxCell>
        <mxCell id="37" value="0..n" style="resizable=0;align=left;verticalAlign=top;labelBackgroundColor=none;fontSize=10;strokeColor=#AF45ED;shadow=1;fillColor=#F694C1;fontColor=#095C86;" parent="36" connectable="0" vertex="1">
          <mxGeometry x="-1" relative="1" as="geometry">
            <mxPoint x="-60" y="2" as="offset" />
          </mxGeometry>
        </mxCell>
        <mxCell id="87" value="" style="endArrow=none;endSize=12;startArrow=none;startSize=14;startFill=0;edgeStyle=orthogonalEdgeStyle;labelBackgroundColor=none;strokeColor=#7F00FF;fontColor=default;entryX=0.5;entryY=0;entryDx=0;entryDy=0;exitX=0;exitY=0.5;exitDx=0;exitDy=0;" parent="1" source="cm0d4Y98Hce47HyUnUgf-232" target="cm0d4Y98Hce47HyUnUgf-218" edge="1">
          <mxGeometry x="519.3599999999999" y="200" as="geometry">
            <mxPoint x="390" y="427.5" as="sourcePoint" />
            <mxPoint x="290" y="491.96000000000004" as="targetPoint" />
            <Array as="points">
              <mxPoint x="370" y="470" />
              <mxPoint x="260" y="470" />
            </Array>
          </mxGeometry>
        </mxCell>
        <mxCell id="88" value="1..n" style="resizable=0;align=left;verticalAlign=top;labelBackgroundColor=none;fontSize=10;strokeColor=#AF45ED;shadow=1;fillColor=#F694C1;fontColor=#095C86;" parent="87" connectable="0" vertex="1">
          <mxGeometry x="-1" relative="1" as="geometry">
            <mxPoint x="-60" y="12" as="offset" />
          </mxGeometry>
        </mxCell>
        <mxCell id="103" value="" style="endArrow=open;endSize=12;startArrow=diamondThin;startSize=14;startFill=1;edgeStyle=orthogonalEdgeStyle;align=left;verticalAlign=bottom;labelBackgroundColor=none;strokeColor=#7F00FF;fontColor=default;exitX=1;exitY=0.5;exitDx=0;exitDy=0;entryX=0.014;entryY=0.222;entryDx=0;entryDy=0;entryPerimeter=0;" parent="1" source="cm0d4Y98Hce47HyUnUgf-178" target="cm0d4Y98Hce47HyUnUgf-232" edge="1">
          <mxGeometry x="-0.8181818181818175" y="4.999999999999702" relative="1" as="geometry">
            <mxPoint x="170" y="438.8000000000002" as="sourcePoint" />
            <mxPoint x="310" y="365" as="targetPoint" />
            <mxPoint as="offset" />
          </mxGeometry>
        </mxCell>
        <mxCell id="cm0d4Y98Hce47HyUnUgf-122" value="" style="endArrow=none;endSize=12;startArrow=none;startSize=14;startFill=0;edgeStyle=orthogonalEdgeStyle;labelBackgroundColor=none;strokeColor=#7F00FF;fontColor=default;exitX=0;exitY=0.5;exitDx=0;exitDy=0;entryX=1.003;entryY=0.778;entryDx=0;entryDy=0;entryPerimeter=0;" parent="1" source="cm0d4Y98Hce47HyUnUgf-194" target="cm0d4Y98Hce47HyUnUgf-223" edge="1">
          <mxGeometry x="620" y="340" as="geometry">
            <mxPoint x="1270" y="447.5" as="sourcePoint" />
            <mxPoint x="1060" y="175" as="targetPoint" />
          </mxGeometry>
        </mxCell>
        <mxCell id="cm0d4Y98Hce47HyUnUgf-125" value="" style="resizable=0;align=right;verticalAlign=top;labelBackgroundColor=none;fontSize=10;strokeColor=#AF45ED;shadow=1;fillColor=#F694C1;fontColor=#095C86;" parent="1" connectable="0" vertex="1">
          <mxGeometry x="1241" y="427.5" as="geometry" />
        </mxCell>
        <mxCell id="cm0d4Y98Hce47HyUnUgf-133" value="" style="endArrow=open;endSize=12;startArrow=diamondThin;startSize=14;startFill=0;edgeStyle=orthogonalEdgeStyle;labelBackgroundColor=none;strokeColor=#7F00FF;fontColor=default;entryX=0.5;entryY=0;entryDx=0;entryDy=0;fillColor=#b1ddf0;exitX=0.5;exitY=0;exitDx=0;exitDy=0;" parent="1" source="efvT4zHFOfx7OfYnkzSs-105" target="cm0d4Y98Hce47HyUnUgf-222" edge="1">
          <mxGeometry x="469.3599999999999" y="526.1600000000003" as="geometry">
            <mxPoint x="100" y="50" as="sourcePoint" />
            <mxPoint x="917.5" y="120" as="targetPoint" />
            <Array as="points">
              <mxPoint x="125" y="-130" />
              <mxPoint x="1195" y="-130" />
            </Array>
          </mxGeometry>
        </mxCell>
        <mxCell id="cm0d4Y98Hce47HyUnUgf-134" value="0..n" style="resizable=0;align=left;verticalAlign=top;labelBackgroundColor=none;fontSize=10;strokeColor=#AF45ED;shadow=1;fillColor=#F694C1;fontColor=#095C86;" parent="cm0d4Y98Hce47HyUnUgf-133" connectable="0" vertex="1">
          <mxGeometry x="-1" relative="1" as="geometry">
            <mxPoint x="5" y="-40" as="offset" />
          </mxGeometry>
        </mxCell>
        <mxCell id="cm0d4Y98Hce47HyUnUgf-136" value="" style="edgeLabel;html=1;align=center;verticalAlign=middle;resizable=0;points=[];strokeColor=#AF45ED;fontColor=#095C86;fillColor=#F694C1;" parent="cm0d4Y98Hce47HyUnUgf-133" vertex="1" connectable="0">
          <mxGeometry relative="1" as="geometry">
            <mxPoint x="215" y="10" as="offset" />
          </mxGeometry>
        </mxCell>
        <mxCell id="cm0d4Y98Hce47HyUnUgf-137" value="" style="endArrow=open;endSize=12;startArrow=diamondThin;startSize=14;startFill=0;edgeStyle=orthogonalEdgeStyle;exitX=0.5;exitY=0;rounded=0;labelBackgroundColor=none;strokeColor=#7F00FF;fontColor=default;endFill=0;exitDx=0;exitDy=0;entryX=0.5;entryY=1;entryDx=0;entryDy=0;" parent="1" source="cm0d4Y98Hce47HyUnUgf-206" target="cm0d4Y98Hce47HyUnUgf-235" edge="1">
          <mxGeometry x="1209.36" y="170" as="geometry">
            <mxPoint x="790" y="585" as="sourcePoint" />
            <mxPoint x="724.4799999999998" y="382.44399999999996" as="targetPoint" />
            <Array as="points">
              <mxPoint x="805" y="470" />
              <mxPoint x="720" y="470" />
            </Array>
          </mxGeometry>
        </mxCell>
        <mxCell id="cm0d4Y98Hce47HyUnUgf-140" value="" style="edgeLabel;html=1;align=center;verticalAlign=middle;resizable=0;points=[];strokeColor=#AF45ED;fontColor=#095C86;fillColor=#F694C1;" parent="cm0d4Y98Hce47HyUnUgf-137" vertex="1" connectable="0">
          <mxGeometry relative="1" as="geometry">
            <mxPoint x="20" y="-28" as="offset" />
          </mxGeometry>
        </mxCell>
        <mxCell id="cm0d4Y98Hce47HyUnUgf-141" value="" style="edgeLabel;html=1;align=center;verticalAlign=middle;resizable=0;points=[];strokeColor=#AF45ED;fontColor=#095C86;fillColor=#F694C1;" parent="cm0d4Y98Hce47HyUnUgf-137" vertex="1" connectable="0">
          <mxGeometry relative="1" as="geometry">
            <mxPoint x="-1" y="40" as="offset" />
          </mxGeometry>
        </mxCell>
        <mxCell id="cm0d4Y98Hce47HyUnUgf-142" value="" style="edgeLabel;html=1;align=center;verticalAlign=middle;resizable=0;points=[];strokeColor=#AF45ED;fontColor=#095C86;fillColor=#F694C1;" parent="cm0d4Y98Hce47HyUnUgf-137" vertex="1" connectable="0">
          <mxGeometry relative="1" as="geometry">
            <mxPoint y="62" as="offset" />
          </mxGeometry>
        </mxCell>
        <mxCell id="cm0d4Y98Hce47HyUnUgf-145" value="1..1" style="resizable=0;align=left;verticalAlign=top;labelBackgroundColor=none;fontSize=10;strokeColor=#AF45ED;shadow=1;fillColor=#F694C1;fontColor=#095C86;" parent="1" connectable="0" vertex="1">
          <mxGeometry x="1350" y="320" as="geometry">
            <mxPoint x="72" y="-93" as="offset" />
          </mxGeometry>
        </mxCell>
        <mxCell id="cm0d4Y98Hce47HyUnUgf-147" value="1..1" style="resizable=0;align=left;verticalAlign=top;labelBackgroundColor=none;fontSize=10;strokeColor=#AF45ED;shadow=1;fillColor=#F694C1;fontColor=#095C86;" parent="1" connectable="0" vertex="1">
          <mxGeometry x="1330" y="370" as="geometry">
            <mxPoint x="-19" y="3" as="offset" />
          </mxGeometry>
        </mxCell>
        <mxCell id="cm0d4Y98Hce47HyUnUgf-148" value="1..1" style="resizable=0;align=left;verticalAlign=top;labelBackgroundColor=none;fontSize=10;strokeColor=#AF45ED;shadow=1;fillColor=#F694C1;fontColor=#095C86;" parent="1" connectable="0" vertex="1">
          <mxGeometry x="1380" y="480" as="geometry">
            <mxPoint x="-15" y="10" as="offset" />
          </mxGeometry>
        </mxCell>
        <mxCell id="cm0d4Y98Hce47HyUnUgf-152" value="1..1" style="resizable=0;align=left;verticalAlign=top;labelBackgroundColor=none;fontSize=10;strokeColor=#AF45ED;shadow=1;fillColor=#F694C1;fontColor=#095C86;" parent="1" connectable="0" vertex="1">
          <mxGeometry x="1350" y="650" as="geometry">
            <mxPoint x="-15" y="10" as="offset" />
          </mxGeometry>
        </mxCell>
        <mxCell id="cm0d4Y98Hce47HyUnUgf-153" value="0..n" style="resizable=0;align=left;verticalAlign=top;labelBackgroundColor=none;fontSize=10;strokeColor=#AF45ED;shadow=1;fillColor=#F694C1;fontColor=#095C86;" parent="1" connectable="0" vertex="1">
          <mxGeometry x="870" y="730" as="geometry">
            <mxPoint x="75" y="-13" as="offset" />
          </mxGeometry>
        </mxCell>
        <mxCell id="cm0d4Y98Hce47HyUnUgf-154" value="0..n" style="resizable=0;align=left;verticalAlign=top;labelBackgroundColor=none;fontSize=10;strokeColor=#AF45ED;shadow=1;fillColor=#F694C1;fontColor=#095C86;" parent="1" connectable="0" vertex="1">
          <mxGeometry x="805" y="350" as="geometry">
            <mxPoint x="-79" y="-12" as="offset" />
          </mxGeometry>
        </mxCell>
        <mxCell id="cm0d4Y98Hce47HyUnUgf-155" value="1..1" style="resizable=0;align=left;verticalAlign=top;labelBackgroundColor=none;fontSize=10;strokeColor=#AF45ED;shadow=1;fillColor=#F694C1;fontColor=#095C86;" parent="1" connectable="0" vertex="1">
          <mxGeometry x="780" y="608.48" as="geometry">
            <mxPoint x="-15" y="10" as="offset" />
          </mxGeometry>
        </mxCell>
        <mxCell id="cm0d4Y98Hce47HyUnUgf-156" value="1..1" style="resizable=0;align=left;verticalAlign=top;labelBackgroundColor=none;fontSize=10;strokeColor=#AF45ED;shadow=1;fillColor=#F694C1;fontColor=#095C86;" parent="1" connectable="0" vertex="1">
          <mxGeometry x="1050" y="350" as="geometry">
            <mxPoint x="157" y="28" as="offset" />
          </mxGeometry>
        </mxCell>
        <mxCell id="cm0d4Y98Hce47HyUnUgf-161" value="" style="endArrow=open;endSize=12;startArrow=diamondThin;startSize=14;startFill=0;edgeStyle=orthogonalEdgeStyle;rounded=0;labelBackgroundColor=none;strokeColor=#7F00FF;fontColor=default;exitX=1;exitY=0.5;exitDx=0;exitDy=0;entryX=0.5;entryY=0;entryDx=0;entryDy=0;" parent="1" source="cm0d4Y98Hce47HyUnUgf-207" target="cm0d4Y98Hce47HyUnUgf-182" edge="1">
          <mxGeometry x="519.3599999999999" y="180" as="geometry">
            <mxPoint x="790" y="685" as="sourcePoint" />
            <mxPoint x="1300" y="670" as="targetPoint" />
            <Array as="points">
              <mxPoint x="1020" y="713" />
              <mxPoint x="1020" y="710" />
              <mxPoint x="1150" y="710" />
              <mxPoint x="1150" y="660" />
              <mxPoint x="1330" y="660" />
            </Array>
          </mxGeometry>
        </mxCell>
        <mxCell id="cm0d4Y98Hce47HyUnUgf-163" value="1..n" style="resizable=0;align=left;verticalAlign=top;labelBackgroundColor=none;fontSize=10;strokeColor=#AF45ED;shadow=1;fillColor=#F694C1;fontColor=#095C86;" parent="1" connectable="0" vertex="1">
          <mxGeometry y="673" as="geometry">
            <mxPoint x="61" y="36" as="offset" />
          </mxGeometry>
        </mxCell>
        <mxCell id="cm0d4Y98Hce47HyUnUgf-164" value="1..1" style="resizable=0;align=left;verticalAlign=top;labelBackgroundColor=none;fontSize=10;strokeColor=#AF45ED;shadow=1;fillColor=#F694C1;fontColor=#095C86;" parent="1" connectable="0" vertex="1">
          <mxGeometry x="370" y="608.48" as="geometry">
            <mxPoint x="-240" y="12" as="offset" />
          </mxGeometry>
        </mxCell>
        <mxCell id="cm0d4Y98Hce47HyUnUgf-165" value="1..1" style="resizable=0;align=left;verticalAlign=top;labelBackgroundColor=none;fontSize=10;strokeColor=#AF45ED;shadow=1;fillColor=#F694C1;fontColor=#095C86;" parent="1" connectable="0" vertex="1">
          <mxGeometry x="250" y="550" as="geometry">
            <mxPoint x="-15" y="10" as="offset" />
          </mxGeometry>
        </mxCell>
        <mxCell id="cm0d4Y98Hce47HyUnUgf-166" value="1..1" style="resizable=0;align=left;verticalAlign=top;labelBackgroundColor=none;fontSize=10;strokeColor=#AF45ED;shadow=1;fillColor=#F694C1;fontColor=#095C86;" parent="1" connectable="0" vertex="1">
          <mxGeometry x="400" y="290" as="geometry">
            <mxPoint x="-15" y="10" as="offset" />
          </mxGeometry>
        </mxCell>
        <mxCell id="cm0d4Y98Hce47HyUnUgf-167" value="1..n" style="resizable=0;align=right;verticalAlign=top;labelBackgroundColor=none;fontSize=10;strokeColor=#AF45ED;shadow=1;fillColor=#F694C1;fontColor=#095C86;" parent="1" connectable="0" vertex="1">
          <mxGeometry x="350" y="370" as="geometry" />
        </mxCell>
        <mxCell id="cm0d4Y98Hce47HyUnUgf-168" value="1..1" style="resizable=0;align=left;verticalAlign=top;labelBackgroundColor=none;fontSize=10;strokeColor=#AF45ED;shadow=1;fillColor=#F694C1;fontColor=#095C86;" parent="1" connectable="0" vertex="1">
          <mxGeometry x="210" y="370" as="geometry">
            <mxPoint x="-15" y="10" as="offset" />
          </mxGeometry>
        </mxCell>
        <mxCell id="cm0d4Y98Hce47HyUnUgf-169" value="1..n" style="resizable=0;align=left;verticalAlign=top;labelBackgroundColor=none;fontSize=10;strokeColor=#AF45ED;shadow=1;fillColor=#F694C1;fontColor=#095C86;" parent="1" connectable="0" vertex="1">
          <mxGeometry x="660" y="325" as="geometry">
            <mxPoint x="-15" y="10" as="offset" />
          </mxGeometry>
        </mxCell>
        <mxCell id="cm0d4Y98Hce47HyUnUgf-170" value="1..1" style="resizable=0;align=left;verticalAlign=top;labelBackgroundColor=none;fontSize=10;strokeColor=#AF45ED;shadow=1;fillColor=#F694C1;fontColor=#095C86;" parent="1" connectable="0" vertex="1">
          <mxGeometry x="630" y="390" as="geometry">
            <mxPoint x="-15" y="10" as="offset" />
          </mxGeometry>
        </mxCell>
        <mxCell id="cm0d4Y98Hce47HyUnUgf-177" value="Chi Tiết Phiếu Xuất" style="swimlane;fontStyle=1;align=center;verticalAlign=top;childLayout=stackLayout;horizontal=1;startSize=26;horizontalStack=0;resizeParent=1;resizeParentMax=0;resizeLast=0;collapsible=1;marginBottom=0;whiteSpace=wrap;html=1;strokeColor=light-dark(#333135, #d176ff);fontColor=#095C86;fillColor=#FFFFFF;" parent="1" vertex="1">
          <mxGeometry x="20" y="325" width="160" height="98" as="geometry" />
        </mxCell>
        <mxCell id="cm0d4Y98Hce47HyUnUgf-178" value="&lt;p style=&quot;color: rgb(0, 0, 0); text-wrap-mode: nowrap; margin: 0px 0px 0px 8px;&quot;&gt;phieu_xuat_id: int(11)&lt;/p&gt;&lt;p style=&quot;color: rgb(0, 0, 0); text-wrap-mode: nowrap; margin: 0px 0px 0px 8px;&quot;&gt;hang_hoa_id: int(11)&lt;/p&gt;&lt;p style=&quot;color: rgb(0, 0, 0); text-wrap-mode: nowrap; margin: 0px 0px 0px 8px;&quot;&gt;so_luong: int(11)&lt;/p&gt;&lt;p style=&quot;color: rgb(0, 0, 0); text-wrap-mode: nowrap; margin: 0px 0px 0px 8px;&quot;&gt;gia_xuat: decimal(10,2)&lt;/p&gt;" style="text;strokeColor=none;fillColor=none;align=left;verticalAlign=top;spacingLeft=4;spacingRight=4;overflow=hidden;rotatable=0;points=[[0,0.5],[1,0.5]];portConstraint=eastwest;whiteSpace=wrap;html=1;fontColor=#095C86;" parent="cm0d4Y98Hce47HyUnUgf-177" vertex="1">
          <mxGeometry y="26" width="160" height="64" as="geometry" />
        </mxCell>
        <mxCell id="cm0d4Y98Hce47HyUnUgf-179" value="" style="line;strokeWidth=1;fillColor=none;align=left;verticalAlign=middle;spacingTop=-1;spacingLeft=3;spacingRight=3;rotatable=0;labelPosition=right;points=[];portConstraint=eastwest;strokeColor=inherit;fontColor=#095C86;" parent="cm0d4Y98Hce47HyUnUgf-177" vertex="1">
          <mxGeometry y="90" width="160" height="8" as="geometry" />
        </mxCell>
        <mxCell id="cm0d4Y98Hce47HyUnUgf-182" value="Nhà Cung Cấp" style="swimlane;fontStyle=1;align=center;verticalAlign=top;childLayout=stackLayout;horizontal=1;startSize=26;horizontalStack=0;resizeParent=1;resizeParentMax=0;resizeLast=0;collapsible=1;marginBottom=0;whiteSpace=wrap;html=1;strokeColor=light-dark(#333135, #d176ff);fontColor=#095C86;fillColor=#FFFFFF;" parent="1" vertex="1">
          <mxGeometry x="1210" y="710" width="240" height="210" as="geometry" />
        </mxCell>
        <mxCell id="cm0d4Y98Hce47HyUnUgf-183" value="&lt;p style=&quot;color: rgb(0, 0, 0); text-wrap-mode: nowrap; margin: 0px 0px 0px 8px;&quot;&gt;Id: int(11)&lt;/p&gt;&lt;p style=&quot;color: rgb(0, 0, 0); text-wrap-mode: nowrap; margin: 0px 0px 0px 8px;&quot;&gt;ten_ncc: varcharr(100)&lt;/p&gt;&lt;p style=&quot;color: rgb(0, 0, 0); text-wrap-mode: nowrap; margin: 0px 0px 0px 8px;&quot;&gt;sdt: varchar(15)&lt;/p&gt;&lt;p style=&quot;color: rgb(0, 0, 0); text-wrap-mode: nowrap; margin: 0px 0px 0px 8px;&quot;&gt;email: varchar(100)&lt;/p&gt;&lt;p style=&quot;color: rgb(0, 0, 0); text-wrap-mode: nowrap; margin: 0px 0px 0px 8px;&quot;&gt;dia_chi:text&lt;/p&gt;" style="text;strokeColor=none;fillColor=none;align=left;verticalAlign=top;spacingLeft=4;spacingRight=4;overflow=hidden;rotatable=0;points=[[0,0.5],[1,0.5]];portConstraint=eastwest;whiteSpace=wrap;html=1;fontColor=#095C86;" parent="cm0d4Y98Hce47HyUnUgf-182" vertex="1">
          <mxGeometry y="26" width="240" height="94" as="geometry" />
        </mxCell>
        <mxCell id="cm0d4Y98Hce47HyUnUgf-184" value="" style="line;strokeWidth=1;fillColor=none;align=left;verticalAlign=middle;spacingTop=-1;spacingLeft=3;spacingRight=3;rotatable=0;labelPosition=right;points=[];portConstraint=eastwest;strokeColor=inherit;fontColor=#095C86;" parent="cm0d4Y98Hce47HyUnUgf-182" vertex="1">
          <mxGeometry y="120" width="240" height="8" as="geometry" />
        </mxCell>
        <mxCell id="cm0d4Y98Hce47HyUnUgf-185" value="ThemNCC():boolean&lt;div&gt;SuaNCC(): boolean&lt;/div&gt;&lt;div&gt;XoaNCC(): boolean&lt;/div&gt;&lt;div&gt;TimKiemNCC(): List&amp;lt;NhaCungCap&amp;gt;&lt;/div&gt;&lt;div&gt;LienHeNCC(): String (Thông báo kết quả)&lt;/div&gt;" style="text;strokeColor=none;fillColor=none;align=left;verticalAlign=top;spacingLeft=4;spacingRight=4;overflow=hidden;rotatable=0;points=[[0,0.5],[1,0.5]];portConstraint=eastwest;whiteSpace=wrap;html=1;fontColor=#095C86;" parent="cm0d4Y98Hce47HyUnUgf-182" vertex="1">
          <mxGeometry y="128" width="240" height="82" as="geometry" />
        </mxCell>
        <mxCell id="cm0d4Y98Hce47HyUnUgf-193" value="Quyền Đăng Nhập" style="swimlane;fontStyle=1;align=center;verticalAlign=top;childLayout=stackLayout;horizontal=1;startSize=26;horizontalStack=0;resizeParent=1;resizeParentMax=0;resizeLast=0;collapsible=1;marginBottom=0;whiteSpace=wrap;html=1;strokeColor=light-dark(#333135, #d176ff);fontColor=#095C86;fillColor=#FFFFFF;" parent="1" vertex="1">
          <mxGeometry x="1400" y="460" width="160" height="88" as="geometry" />
        </mxCell>
        <mxCell id="cm0d4Y98Hce47HyUnUgf-194" value="&lt;p style=&quot;color: rgb(0, 0, 0); text-wrap-mode: nowrap; margin: 0px 0px 0px 8px;&quot;&gt;Id: int(11)&lt;/p&gt;&lt;p style=&quot;color: rgb(0, 0, 0); text-wrap-mode: nowrap; margin: 0px 0px 0px 8px;&quot;&gt;ten_quyen: varchar(100)&lt;/p&gt;" style="text;strokeColor=none;fillColor=none;align=left;verticalAlign=top;spacingLeft=4;spacingRight=4;overflow=hidden;rotatable=0;points=[[0,0.5],[1,0.5]];portConstraint=eastwest;whiteSpace=wrap;html=1;fontColor=#095C86;" parent="cm0d4Y98Hce47HyUnUgf-193" vertex="1">
          <mxGeometry y="26" width="160" height="54" as="geometry" />
        </mxCell>
        <mxCell id="cm0d4Y98Hce47HyUnUgf-195" value="" style="line;strokeWidth=1;fillColor=none;align=left;verticalAlign=middle;spacingTop=-1;spacingLeft=3;spacingRight=3;rotatable=0;labelPosition=right;points=[];portConstraint=eastwest;strokeColor=inherit;fontColor=#095C86;" parent="cm0d4Y98Hce47HyUnUgf-193" vertex="1">
          <mxGeometry y="80" width="160" height="8" as="geometry" />
        </mxCell>
        <mxCell id="cm0d4Y98Hce47HyUnUgf-198" value="Chức Vụ" style="swimlane;fontStyle=1;align=center;verticalAlign=top;childLayout=stackLayout;horizontal=1;startSize=26;horizontalStack=0;resizeParent=1;resizeParentMax=0;resizeLast=0;collapsible=1;marginBottom=0;whiteSpace=wrap;html=1;strokeColor=light-dark(#333135, #d176ff);fontColor=#095C86;fillColor=#FFFFFF;" parent="1" vertex="1">
          <mxGeometry x="1410" y="290" width="160" height="88" as="geometry" />
        </mxCell>
        <mxCell id="cm0d4Y98Hce47HyUnUgf-199" value="&lt;hr style=&quot;color: rgb(0, 0, 0); text-wrap-mode: nowrap;&quot;&gt;&lt;p style=&quot;color: rgb(0, 0, 0); text-wrap-mode: nowrap; margin: 0px 0px 0px 8px;&quot;&gt;Id: int(11)&lt;br&gt;&lt;/p&gt;&lt;p style=&quot;color: rgb(0, 0, 0); text-wrap-mode: nowrap; margin: 0px 0px 0px 8px;&quot;&gt;ten_chuc_vu: varchar(100)&lt;/p&gt;" style="text;strokeColor=none;fillColor=none;align=left;verticalAlign=top;spacingLeft=4;spacingRight=4;overflow=hidden;rotatable=0;points=[[0,0.5],[1,0.5]];portConstraint=eastwest;whiteSpace=wrap;html=1;fontColor=#095C86;" parent="cm0d4Y98Hce47HyUnUgf-198" vertex="1">
          <mxGeometry y="26" width="160" height="54" as="geometry" />
        </mxCell>
        <mxCell id="cm0d4Y98Hce47HyUnUgf-200" value="" style="line;strokeWidth=1;fillColor=none;align=left;verticalAlign=middle;spacingTop=-1;spacingLeft=3;spacingRight=3;rotatable=0;labelPosition=right;points=[];portConstraint=eastwest;strokeColor=inherit;fontColor=#095C86;" parent="cm0d4Y98Hce47HyUnUgf-198" vertex="1">
          <mxGeometry y="80" width="160" height="8" as="geometry" />
        </mxCell>
        <mxCell id="cm0d4Y98Hce47HyUnUgf-202" value="Hóa Đơn Bán Hàng" style="swimlane;fontStyle=1;align=center;verticalAlign=top;childLayout=stackLayout;horizontal=1;startSize=26;horizontalStack=0;resizeParent=1;resizeParentMax=0;resizeLast=0;collapsible=1;marginBottom=0;whiteSpace=wrap;html=1;strokeColor=light-dark(#333135, #d176ff);fontColor=#095C86;fillColor=#FFFFFF;" parent="1" vertex="1">
          <mxGeometry x="900" y="200" width="200" height="200" as="geometry" />
        </mxCell>
        <mxCell id="cm0d4Y98Hce47HyUnUgf-203" value="&lt;p style=&quot;color: rgb(0, 0, 0); text-wrap-mode: nowrap; margin: 0px 0px 0px 8px;&quot;&gt;Id: int(11)&lt;/p&gt;&lt;p style=&quot;color: rgb(0, 0, 0); text-wrap-mode: nowrap; margin: 0px 0px 0px 8px;&quot;&gt;ngay_ban: date&amp;nbsp;&lt;/p&gt;&lt;p style=&quot;color: rgb(0, 0, 0); text-wrap-mode: nowrap; margin: 0px 0px 0px 8px;&quot;&gt;nhan_vien_id: int(11)&lt;/p&gt;&lt;p style=&quot;color: rgb(0, 0, 0); text-wrap-mode: nowrap; margin: 0px 0px 0px 8px;&quot;&gt;khach_hang_id: int(11)&lt;/p&gt;" style="text;strokeColor=none;fillColor=none;align=left;verticalAlign=top;spacingLeft=4;spacingRight=4;overflow=hidden;rotatable=0;points=[[0,0.5],[1,0.5]];portConstraint=eastwest;whiteSpace=wrap;html=1;fontColor=#095C86;" parent="cm0d4Y98Hce47HyUnUgf-202" vertex="1">
          <mxGeometry y="26" width="200" height="74" as="geometry" />
        </mxCell>
        <mxCell id="cm0d4Y98Hce47HyUnUgf-204" value="" style="line;strokeWidth=1;fillColor=none;align=left;verticalAlign=middle;spacingTop=-1;spacingLeft=3;spacingRight=3;rotatable=0;labelPosition=right;points=[];portConstraint=eastwest;strokeColor=inherit;fontColor=#095C86;" parent="cm0d4Y98Hce47HyUnUgf-202" vertex="1">
          <mxGeometry y="100" width="200" height="8" as="geometry" />
        </mxCell>
        <mxCell id="cm0d4Y98Hce47HyUnUgf-205" value="TaoHDBH(): int&lt;div&gt;ThemHangVaoHD(): boolean&lt;/div&gt;&lt;div&gt;TinhTongTienHD(): double&lt;/div&gt;&lt;div&gt;XuatHD(): boolean&lt;/div&gt;&lt;div&gt;CapNhatKH(): boolean&lt;/div&gt;" style="text;strokeColor=none;fillColor=none;align=left;verticalAlign=top;spacingLeft=4;spacingRight=4;overflow=hidden;rotatable=0;points=[[0,0.5],[1,0.5]];portConstraint=eastwest;whiteSpace=wrap;html=1;fontColor=#095C86;" parent="cm0d4Y98Hce47HyUnUgf-202" vertex="1">
          <mxGeometry y="108" width="200" height="92" as="geometry" />
        </mxCell>
        <mxCell id="cm0d4Y98Hce47HyUnUgf-206" value="Phiếu Nhập" style="swimlane;fontStyle=1;align=center;verticalAlign=top;childLayout=stackLayout;horizontal=1;startSize=26;horizontalStack=0;resizeParent=1;resizeParentMax=0;resizeLast=0;collapsible=1;marginBottom=0;whiteSpace=wrap;html=1;strokeColor=light-dark(#333135, #d176ff);fontColor=#095C86;fillColor=#FFFFFF;" parent="1" vertex="1">
          <mxGeometry x="710" y="650" width="190" height="200" as="geometry" />
        </mxCell>
        <mxCell id="cm0d4Y98Hce47HyUnUgf-207" value="&lt;p style=&quot;color: rgb(0, 0, 0); text-wrap-mode: nowrap; margin: 0px 0px 0px 8px;&quot;&gt;Id: int(11)&lt;/p&gt;&lt;p style=&quot;color: rgb(0, 0, 0); text-wrap-mode: nowrap; margin: 0px 0px 0px 8px;&quot;&gt;ngay_nhap: date&lt;/p&gt;&lt;p style=&quot;color: rgb(0, 0, 0); text-wrap-mode: nowrap; margin: 0px 0px 0px 8px;&quot;&gt;nhan_vien_id: int(11)&lt;/p&gt;&lt;p style=&quot;color: rgb(0, 0, 0); text-wrap-mode: nowrap; margin: 0px 0px 0px 8px;&quot;&gt;nha_cung_cap_id: int(11)&lt;/p&gt;" style="text;strokeColor=none;fillColor=none;align=left;verticalAlign=top;spacingLeft=4;spacingRight=4;overflow=hidden;rotatable=0;points=[[0,0.5],[1,0.5]];portConstraint=eastwest;whiteSpace=wrap;html=1;fontColor=#095C86;" parent="cm0d4Y98Hce47HyUnUgf-206" vertex="1">
          <mxGeometry y="26" width="190" height="74" as="geometry" />
        </mxCell>
        <mxCell id="cm0d4Y98Hce47HyUnUgf-208" value="" style="line;strokeWidth=1;fillColor=none;align=left;verticalAlign=middle;spacingTop=-1;spacingLeft=3;spacingRight=3;rotatable=0;labelPosition=right;points=[];portConstraint=eastwest;strokeColor=inherit;fontColor=#095C86;" parent="cm0d4Y98Hce47HyUnUgf-206" vertex="1">
          <mxGeometry y="100" width="190" height="8" as="geometry" />
        </mxCell>
        <mxCell id="cm0d4Y98Hce47HyUnUgf-209" value="TaoPN(): int&lt;div&gt;ThemHPN(): boolean&lt;/div&gt;&lt;div&gt;TongTienPN(): double&lt;/div&gt;&lt;div&gt;CapNhapKhoHang(): boolean&lt;/div&gt;&lt;div&gt;InPN(): boolean&lt;/div&gt;" style="text;strokeColor=none;fillColor=none;align=left;verticalAlign=top;spacingLeft=4;spacingRight=4;overflow=hidden;rotatable=0;points=[[0,0.5],[1,0.5]];portConstraint=eastwest;whiteSpace=wrap;html=1;fontColor=#095C86;" parent="cm0d4Y98Hce47HyUnUgf-206" vertex="1">
          <mxGeometry y="108" width="190" height="92" as="geometry" />
        </mxCell>
        <mxCell id="cm0d4Y98Hce47HyUnUgf-210" value="Kho Hàng" style="swimlane;fontStyle=1;align=center;verticalAlign=top;childLayout=stackLayout;horizontal=1;startSize=26;horizontalStack=0;resizeParent=1;resizeParentMax=0;resizeLast=0;collapsible=1;marginBottom=0;whiteSpace=wrap;html=1;strokeColor=light-dark(#333135, #d176ff);fontColor=#095C86;fillColor=#FFFFFF;" parent="1" vertex="1">
          <mxGeometry x="290" y="-30" width="160" height="190" as="geometry" />
        </mxCell>
        <mxCell id="cm0d4Y98Hce47HyUnUgf-211" value="&lt;p style=&quot;color: rgb(0, 0, 0); text-wrap-mode: nowrap; margin: 0px 0px 0px 8px;&quot;&gt;Id: int(11)&lt;br&gt;&lt;/p&gt;&lt;p style=&quot;color: rgb(0, 0, 0); text-wrap-mode: nowrap; margin: 0px 0px 0px 8px;&quot;&gt;hang_hoa_id: int(11)&lt;/p&gt;&lt;p style=&quot;color: rgb(0, 0, 0); text-wrap-mode: nowrap; margin: 0px 0px 0px 8px;&quot;&gt;so_luong_ton: int(11)&lt;/p&gt;" style="text;strokeColor=none;fillColor=none;align=left;verticalAlign=top;spacingLeft=4;spacingRight=4;overflow=hidden;rotatable=0;points=[[0,0.5],[1,0.5]];portConstraint=eastwest;whiteSpace=wrap;html=1;fontColor=#095C86;" parent="cm0d4Y98Hce47HyUnUgf-210" vertex="1">
          <mxGeometry y="26" width="160" height="64" as="geometry" />
        </mxCell>
        <mxCell id="cm0d4Y98Hce47HyUnUgf-212" value="" style="line;strokeWidth=1;fillColor=none;align=left;verticalAlign=middle;spacingTop=-1;spacingLeft=3;spacingRight=3;rotatable=0;labelPosition=right;points=[];portConstraint=eastwest;strokeColor=inherit;fontColor=#095C86;" parent="cm0d4Y98Hce47HyUnUgf-210" vertex="1">
          <mxGeometry y="90" width="160" height="8" as="geometry" />
        </mxCell>
        <mxCell id="cm0d4Y98Hce47HyUnUgf-213" value="KiemTraSLTK(): int&lt;div&gt;CanhBaoHetHang() List&amp;lt;HangHoa&amp;gt;&lt;/div&gt;&lt;div&gt;BaoCaoNhap/Xuat/Ton(): List&amp;lt;BaoCaoKho&lt;/div&gt;" style="text;strokeColor=none;fillColor=none;align=left;verticalAlign=top;spacingLeft=4;spacingRight=4;overflow=hidden;rotatable=0;points=[[0,0.5],[1,0.5]];portConstraint=eastwest;whiteSpace=wrap;html=1;fontColor=#095C86;" parent="cm0d4Y98Hce47HyUnUgf-210" vertex="1">
          <mxGeometry y="98" width="160" height="92" as="geometry" />
        </mxCell>
        <mxCell id="cm0d4Y98Hce47HyUnUgf-214" value="Ngành Hàng" style="swimlane;fontStyle=1;align=center;verticalAlign=top;childLayout=stackLayout;horizontal=1;startSize=26;horizontalStack=0;resizeParent=1;resizeParentMax=0;resizeLast=0;collapsible=1;marginBottom=0;whiteSpace=wrap;html=1;strokeColor=light-dark(#333135, #d176ff);fontColor=#095C86;fillColor=#FFFFFF;" parent="1" vertex="1">
          <mxGeometry x="-20" y="730" width="160" height="78" as="geometry" />
        </mxCell>
        <mxCell id="cm0d4Y98Hce47HyUnUgf-215" value="&lt;p style=&quot;color: rgb(0, 0, 0); text-wrap-mode: nowrap; margin: 0px 0px 0px 8px;&quot;&gt;Id: int(11)&lt;/p&gt;&lt;p style=&quot;color: rgb(0, 0, 0); text-wrap-mode: nowrap; margin: 0px 0px 0px 8px;&quot;&gt;ten_nganh: varchar(100)&lt;/p&gt;" style="text;strokeColor=none;fillColor=none;align=left;verticalAlign=top;spacingLeft=4;spacingRight=4;overflow=hidden;rotatable=0;points=[[0,0.5],[1,0.5]];portConstraint=eastwest;whiteSpace=wrap;html=1;fontColor=#095C86;" parent="cm0d4Y98Hce47HyUnUgf-214" vertex="1">
          <mxGeometry y="26" width="160" height="44" as="geometry" />
        </mxCell>
        <mxCell id="cm0d4Y98Hce47HyUnUgf-216" value="" style="line;strokeWidth=1;fillColor=none;align=left;verticalAlign=middle;spacingTop=-1;spacingLeft=3;spacingRight=3;rotatable=0;labelPosition=right;points=[];portConstraint=eastwest;strokeColor=inherit;fontColor=#095C86;" parent="cm0d4Y98Hce47HyUnUgf-214" vertex="1">
          <mxGeometry y="70" width="160" height="8" as="geometry" />
        </mxCell>
        <mxCell id="cm0d4Y98Hce47HyUnUgf-218" value="Nhóm Hàng" style="swimlane;fontStyle=1;align=center;verticalAlign=top;childLayout=stackLayout;horizontal=1;startSize=26;horizontalStack=0;resizeParent=1;resizeParentMax=0;resizeLast=0;collapsible=1;marginBottom=0;whiteSpace=wrap;html=1;strokeColor=light-dark(#333135, #d176ff);fontColor=#095C86;fillColor=#FFFFFF;" parent="1" vertex="1">
          <mxGeometry x="180" y="585" width="160" height="88" as="geometry" />
        </mxCell>
        <mxCell id="cm0d4Y98Hce47HyUnUgf-219" value="&lt;p style=&quot;color: rgb(0, 0, 0); text-wrap-mode: nowrap; margin: 0px 0px 0px 8px;&quot;&gt;Id: int(11)&lt;/p&gt;&lt;p style=&quot;color: rgb(0, 0, 0); text-wrap-mode: nowrap; margin: 0px 0px 0px 8px;&quot;&gt;ten_nhom: varchar(100)&lt;/p&gt;&lt;p style=&quot;color: rgb(0, 0, 0); text-wrap-mode: nowrap; margin: 0px 0px 0px 8px;&quot;&gt;nganh_hang_id: int(11)&lt;/p&gt;" style="text;strokeColor=none;fillColor=none;align=left;verticalAlign=top;spacingLeft=4;spacingRight=4;overflow=hidden;rotatable=0;points=[[0,0.5],[1,0.5]];portConstraint=eastwest;whiteSpace=wrap;html=1;fontColor=#095C86;" parent="cm0d4Y98Hce47HyUnUgf-218" vertex="1">
          <mxGeometry y="26" width="160" height="54" as="geometry" />
        </mxCell>
        <mxCell id="cm0d4Y98Hce47HyUnUgf-220" value="" style="line;strokeWidth=1;fillColor=none;align=left;verticalAlign=middle;spacingTop=-1;spacingLeft=3;spacingRight=3;rotatable=0;labelPosition=right;points=[];portConstraint=eastwest;strokeColor=inherit;fontColor=#095C86;" parent="cm0d4Y98Hce47HyUnUgf-218" vertex="1">
          <mxGeometry y="80" width="160" height="8" as="geometry" />
        </mxCell>
        <mxCell id="X0fYnVSRhOy8A3_jzXu8-139" style="edgeStyle=orthogonalEdgeStyle;rounded=0;orthogonalLoop=1;jettySize=auto;html=1;exitX=0.25;exitY=0;exitDx=0;exitDy=0;entryX=1;entryY=0.5;entryDx=0;entryDy=0;strokeColor=#7F00FF;endSize=12;startSize=14;endArrow=classicThin;endFill=1;" edge="1" parent="1" source="cm0d4Y98Hce47HyUnUgf-222" target="cm0d4Y98Hce47HyUnUgf-205">
          <mxGeometry relative="1" as="geometry" />
        </mxCell>
        <mxCell id="cm0d4Y98Hce47HyUnUgf-222" value="Nhân viên" style="swimlane;fontStyle=1;align=center;verticalAlign=top;childLayout=stackLayout;horizontal=1;startSize=26;horizontalStack=0;resizeParent=1;resizeParentMax=0;resizeLast=0;collapsible=1;marginBottom=0;whiteSpace=wrap;html=1;strokeColor=light-dark(#333135, #d176ff);fontColor=#095C86;fillColor=#FFFFFF;" parent="1" vertex="1">
          <mxGeometry x="1090" y="423" width="210" height="190" as="geometry" />
        </mxCell>
        <mxCell id="cm0d4Y98Hce47HyUnUgf-223" value="&lt;p style=&quot;color: rgb(0, 0, 0); text-wrap-mode: nowrap; margin: 0px 0px 0px 8px;&quot;&gt;Id: int(11)&lt;/p&gt;&lt;p style=&quot;color: rgb(0, 0, 0); text-wrap-mode: nowrap; margin: 0px 0px 0px 8px;&quot;&gt;ho_ten: varchar(100)&lt;/p&gt;&lt;p style=&quot;color: rgb(0, 0, 0); text-wrap-mode: nowrap; margin: 0px 0px 0px 8px;&quot;&gt;ngay_sinh: date&lt;/p&gt;&lt;p style=&quot;color: rgb(0, 0, 0); text-wrap-mode: nowrap; margin: 0px 0px 0px 8px;&quot;&gt;gioi_tinh: enum(&#39;Nam&#39;,&#39;Nữ&#39;,&#39;Khác&#39;)&lt;/p&gt;" style="text;strokeColor=none;fillColor=none;align=left;verticalAlign=top;spacingLeft=4;spacingRight=4;overflow=hidden;rotatable=0;points=[[0,0.5],[1,0.5]];portConstraint=eastwest;whiteSpace=wrap;html=1;fontColor=#095C86;" parent="cm0d4Y98Hce47HyUnUgf-222" vertex="1">
          <mxGeometry y="26" width="210" height="74" as="geometry" />
        </mxCell>
        <mxCell id="cm0d4Y98Hce47HyUnUgf-224" value="" style="line;strokeWidth=1;fillColor=none;align=left;verticalAlign=middle;spacingTop=-1;spacingLeft=3;spacingRight=3;rotatable=0;labelPosition=right;points=[];portConstraint=eastwest;strokeColor=inherit;fontColor=#095C86;" parent="cm0d4Y98Hce47HyUnUgf-222" vertex="1">
          <mxGeometry y="100" width="210" height="8" as="geometry" />
        </mxCell>
        <mxCell id="cm0d4Y98Hce47HyUnUgf-225" value="ThemNV() boolean&lt;div&gt;SuaNV()&amp;nbsp;&lt;span style=&quot;background-color: transparent; color: light-dark(rgb(9, 92, 134), rgb(112, 183, 219));&quot;&gt;boolean&lt;/span&gt;&lt;/div&gt;&lt;div&gt;XoaNV()&amp;nbsp;&amp;nbsp;&lt;span style=&quot;background-color: transparent; color: light-dark(rgb(9, 92, 134), rgb(112, 183, 219));&quot;&gt;boolean&lt;/span&gt;&lt;/div&gt;&lt;div&gt;PhanQuyenDangNhap()&amp;nbsp;&lt;span style=&quot;background-color: transparent; color: light-dark(rgb(9, 92, 134), rgb(112, 183, 219));&quot;&gt;boolean&lt;/span&gt;&lt;/div&gt;&lt;div&gt;QuanLyChucVu() List &amp;lt;ChucVu&amp;gt;&lt;/div&gt;" style="text;strokeColor=none;fillColor=none;align=left;verticalAlign=top;spacingLeft=4;spacingRight=4;overflow=hidden;rotatable=0;points=[[0,0.5],[1,0.5]];portConstraint=eastwest;whiteSpace=wrap;html=1;fontColor=#095C86;" parent="cm0d4Y98Hce47HyUnUgf-222" vertex="1">
          <mxGeometry y="108" width="210" height="82" as="geometry" />
        </mxCell>
        <mxCell id="cm0d4Y98Hce47HyUnUgf-231" value="Hàng Hóa" style="swimlane;fontStyle=1;align=center;verticalAlign=top;childLayout=stackLayout;horizontal=1;startSize=26;horizontalStack=0;resizeParent=1;resizeParentMax=0;resizeLast=0;collapsible=1;marginBottom=0;whiteSpace=wrap;html=1;strokeColor=light-dark(#333135, #d176ff);fontColor=#095C86;fillColor=#FFFFFF;" parent="1" vertex="1">
          <mxGeometry x="370" y="350" width="230" height="240" as="geometry" />
        </mxCell>
        <mxCell id="cm0d4Y98Hce47HyUnUgf-232" value="&lt;p style=&quot;color: rgb(0, 0, 0); text-wrap-mode: nowrap; margin: 0px 0px 0px 8px;&quot;&gt;id: int(11)&lt;/p&gt;&lt;p style=&quot;color: rgb(0, 0, 0); text-wrap-mode: nowrap; margin: 0px 0px 0px 8px;&quot;&gt;ten_hang: varchar100)&lt;/p&gt;&lt;p style=&quot;color: rgb(0, 0, 0); text-wrap-mode: nowrap; margin: 0px 0px 0px 8px;&quot;&gt;don_vi_tinh: varchar(50)&lt;/p&gt;&lt;p style=&quot;color: rgb(0, 0, 0); text-wrap-mode: nowrap; margin: 0px 0px 0px 8px;&quot;&gt;gia_nhap: decimal(10, 2)&lt;/p&gt;&lt;p style=&quot;color: rgb(0, 0, 0); text-wrap-mode: nowrap; margin: 0px 0px 0px 8px;&quot;&gt;gia_ban: decimal(10, 2)&lt;/p&gt;&lt;p style=&quot;color: rgb(0, 0, 0); text-wrap-mode: nowrap; margin: 0px 0px 0px 8px;&quot;&gt;nhom_hang_id: int (11)&lt;/p&gt;" style="text;strokeColor=none;fillColor=none;align=left;verticalAlign=top;spacingLeft=4;spacingRight=4;overflow=hidden;rotatable=0;points=[[0,0.5],[1,0.5]];portConstraint=eastwest;whiteSpace=wrap;html=1;fontColor=#095C86;" parent="cm0d4Y98Hce47HyUnUgf-231" vertex="1">
          <mxGeometry y="26" width="230" height="104" as="geometry" />
        </mxCell>
        <mxCell id="cm0d4Y98Hce47HyUnUgf-233" value="" style="line;strokeWidth=1;fillColor=none;align=left;verticalAlign=middle;spacingTop=-1;spacingLeft=3;spacingRight=3;rotatable=0;labelPosition=right;points=[];portConstraint=eastwest;strokeColor=inherit;fontColor=#095C86;" parent="cm0d4Y98Hce47HyUnUgf-231" vertex="1">
          <mxGeometry y="130" width="230" height="8" as="geometry" />
        </mxCell>
        <mxCell id="cm0d4Y98Hce47HyUnUgf-234" value="ThemHH(): boolean&lt;div&gt;SuaHH():&amp;nbsp;&lt;span style=&quot;background-color: transparent; color: light-dark(rgb(9, 92, 134), rgb(112, 183, 219));&quot;&gt;boolean&lt;/span&gt;&lt;/div&gt;&lt;div&gt;XoaHH():&amp;nbsp;&lt;span style=&quot;background-color: transparent; color: light-dark(rgb(9, 92, 134), rgb(112, 183, 219));&quot;&gt;boolean&lt;/span&gt;&lt;/div&gt;&lt;div&gt;QuanLyNhomHang(): List&amp;lt;Srting&amp;gt;&lt;/div&gt;&lt;div&gt;QuanLyNganhHang(): List&amp;lt;NhomHang&lt;br&gt;TimKiemHH(): List&amp;lt;HangHoa&amp;gt;&lt;/div&gt;" style="text;strokeColor=none;fillColor=none;align=left;verticalAlign=top;spacingLeft=4;spacingRight=4;overflow=hidden;rotatable=0;points=[[0,0.5],[1,0.5]];portConstraint=eastwest;whiteSpace=wrap;html=1;fontColor=#095C86;" parent="cm0d4Y98Hce47HyUnUgf-231" vertex="1">
          <mxGeometry y="138" width="230" height="102" as="geometry" />
        </mxCell>
        <mxCell id="cm0d4Y98Hce47HyUnUgf-235" value="Chi Tiết Phiếu Nhập" style="swimlane;fontStyle=1;align=center;verticalAlign=top;childLayout=stackLayout;horizontal=1;startSize=26;horizontalStack=0;resizeParent=1;resizeParentMax=0;resizeLast=0;collapsible=1;marginBottom=0;whiteSpace=wrap;html=1;strokeColor=light-dark(#333135, #d176ff);fontColor=#095C86;fillColor=#FFFFFF;" parent="1" vertex="1">
          <mxGeometry x="640" y="220" width="160" height="108" as="geometry" />
        </mxCell>
        <mxCell id="cm0d4Y98Hce47HyUnUgf-236" value="&lt;p style=&quot;color: rgb(0, 0, 0); text-wrap-mode: nowrap; margin: 0px 0px 0px 8px;&quot;&gt;phieu_nhap_id: int(11)&lt;/p&gt;&lt;p style=&quot;color: rgb(0, 0, 0); text-wrap-mode: nowrap; margin: 0px 0px 0px 8px;&quot;&gt;hang_hoa_id: int(11)&lt;/p&gt;&lt;p style=&quot;color: rgb(0, 0, 0); text-wrap-mode: nowrap; margin: 0px 0px 0px 8px;&quot;&gt;so_luong: int(11)&lt;/p&gt;&lt;p style=&quot;color: rgb(0, 0, 0); text-wrap-mode: nowrap; margin: 0px 0px 0px 8px;&quot;&gt;gia_nhap: decimal(10,2)&lt;/p&gt;" style="text;strokeColor=none;fillColor=none;align=left;verticalAlign=top;spacingLeft=4;spacingRight=4;overflow=hidden;rotatable=0;points=[[0,0.5],[1,0.5]];portConstraint=eastwest;whiteSpace=wrap;html=1;fontColor=#095C86;" parent="cm0d4Y98Hce47HyUnUgf-235" vertex="1">
          <mxGeometry y="26" width="160" height="74" as="geometry" />
        </mxCell>
        <mxCell id="cm0d4Y98Hce47HyUnUgf-237" value="" style="line;strokeWidth=1;fillColor=none;align=left;verticalAlign=middle;spacingTop=-1;spacingLeft=3;spacingRight=3;rotatable=0;labelPosition=right;points=[];portConstraint=eastwest;strokeColor=inherit;fontColor=#095C86;" parent="cm0d4Y98Hce47HyUnUgf-235" vertex="1">
          <mxGeometry y="100" width="160" height="8" as="geometry" />
        </mxCell>
        <mxCell id="r8c7k1OfiPqR0j_FVapZ-104" value="1..n" style="resizable=0;align=right;verticalAlign=top;labelBackgroundColor=none;fontSize=10;strokeColor=#AF45ED;shadow=1;fillColor=#F694C1;fontColor=#095C86;" parent="1" connectable="0" vertex="1">
          <mxGeometry x="120" y="290" as="geometry" />
        </mxCell>
        <mxCell id="r8c7k1OfiPqR0j_FVapZ-105" value="1..n" style="resizable=0;align=right;verticalAlign=top;labelBackgroundColor=none;fontSize=10;strokeColor=#AF45ED;shadow=1;fillColor=#F694C1;fontColor=#095C86;" parent="1" connectable="0" vertex="1">
          <mxGeometry x="120" y="190" as="geometry">
            <mxPoint x="16" y="40" as="offset" />
          </mxGeometry>
        </mxCell>
        <mxCell id="efvT4zHFOfx7OfYnkzSs-105" value="Phiếu Xuất" style="swimlane;fontStyle=1;align=center;verticalAlign=top;childLayout=stackLayout;horizontal=1;startSize=26;horizontalStack=0;resizeParent=1;resizeParentMax=0;resizeLast=0;collapsible=1;marginBottom=0;whiteSpace=wrap;html=1;strokeColor=light-dark(#333135, #d176ff);fontColor=#095C86;fillColor=#FFFFFF;" parent="1" vertex="1">
          <mxGeometry x="30" y="40" width="190" height="180" as="geometry" />
        </mxCell>
        <mxCell id="efvT4zHFOfx7OfYnkzSs-106" value="&lt;p style=&quot;text-wrap-mode: nowrap; color: rgb(0, 0, 0); margin: 0px 0px 0px 8px;&quot;&gt;Id: int(11)&lt;/p&gt;&lt;p style=&quot;text-wrap-mode: nowrap; color: rgb(0, 0, 0); margin: 0px 0px 0px 8px;&quot;&gt;ngay_xuat: date&lt;/p&gt;&lt;p style=&quot;text-wrap-mode: nowrap; color: rgb(0, 0, 0); margin: 0px 0px 0px 8px;&quot;&gt;nhan_vien_id: int(11)&lt;/p&gt;" style="text;strokeColor=none;fillColor=none;align=left;verticalAlign=top;spacingLeft=4;spacingRight=4;overflow=hidden;rotatable=0;points=[[0,0.5],[1,0.5]];portConstraint=eastwest;whiteSpace=wrap;html=1;fontColor=#095C86;" parent="efvT4zHFOfx7OfYnkzSs-105" vertex="1">
          <mxGeometry y="26" width="190" height="64" as="geometry" />
        </mxCell>
        <mxCell id="efvT4zHFOfx7OfYnkzSs-107" value="" style="line;strokeWidth=1;fillColor=none;align=left;verticalAlign=middle;spacingTop=-1;spacingLeft=3;spacingRight=3;rotatable=0;labelPosition=right;points=[];portConstraint=eastwest;strokeColor=inherit;fontColor=#095C86;" parent="efvT4zHFOfx7OfYnkzSs-105" vertex="1">
          <mxGeometry y="90" width="190" height="8" as="geometry" />
        </mxCell>
        <mxCell id="efvT4zHFOfx7OfYnkzSs-108" value="TaoPX(): int&lt;div&gt;ThemHangPX(): boolean&lt;/div&gt;&lt;div&gt;TinhTongTienPX(): double&lt;/div&gt;&lt;div&gt;CapNhatKhoHang(): double&lt;/div&gt;&lt;div&gt;InPX(): boolean&lt;/div&gt;" style="text;strokeColor=none;fillColor=none;align=left;verticalAlign=top;spacingLeft=4;spacingRight=4;overflow=hidden;rotatable=0;points=[[0,0.5],[1,0.5]];portConstraint=eastwest;whiteSpace=wrap;html=1;fontColor=#095C86;" parent="efvT4zHFOfx7OfYnkzSs-105" vertex="1">
          <mxGeometry y="98" width="190" height="82" as="geometry" />
        </mxCell>
        <mxCell id="efvT4zHFOfx7OfYnkzSs-109" style="edgeStyle=orthogonalEdgeStyle;rounded=0;orthogonalLoop=1;jettySize=auto;html=1;exitX=0.5;exitY=0;exitDx=0;exitDy=0;entryX=0.436;entryY=1;entryDx=0;entryDy=0;entryPerimeter=0;strokeColor=#7F00FF;endArrow=diamondThin;endFill=1;endSize=12;startSize=14;" parent="1" source="cm0d4Y98Hce47HyUnUgf-177" target="efvT4zHFOfx7OfYnkzSs-108" edge="1">
          <mxGeometry relative="1" as="geometry" />
        </mxCell>
        <mxCell id="X0fYnVSRhOy8A3_jzXu8-103" value="" style="endArrow=none;endSize=12;startArrow=none;startSize=14;startFill=0;edgeStyle=orthogonalEdgeStyle;labelBackgroundColor=none;strokeColor=#7F00FF;fontColor=default;exitX=0.5;exitY=0;exitDx=0;exitDy=0;entryX=0;entryY=0.5;entryDx=0;entryDy=0;" edge="1" parent="1" source="cm0d4Y98Hce47HyUnUgf-214" target="cm0d4Y98Hce47HyUnUgf-219">
          <mxGeometry x="369.35999999999996" y="360" as="geometry">
            <mxPoint x="189.75" y="799.75" as="sourcePoint" />
            <mxPoint x="549.75" y="659.75" as="targetPoint" />
            <Array as="points" />
          </mxGeometry>
        </mxCell>
        <mxCell id="X0fYnVSRhOy8A3_jzXu8-104" value="" style="resizable=0;align=left;verticalAlign=top;labelBackgroundColor=none;fontSize=10;strokeColor=#AF45ED;shadow=1;fillColor=#F694C1;fontColor=#095C86;" connectable="0" vertex="1" parent="X0fYnVSRhOy8A3_jzXu8-103">
          <mxGeometry x="-1" relative="1" as="geometry">
            <mxPoint x="-31.08000000000042" as="offset" />
          </mxGeometry>
        </mxCell>
        <mxCell id="X0fYnVSRhOy8A3_jzXu8-106" value="Chi tiết khuyến mãi&amp;nbsp;" style="swimlane;fontStyle=1;align=center;verticalAlign=top;childLayout=stackLayout;horizontal=1;startSize=26;horizontalStack=0;resizeParent=1;resizeParentMax=0;resizeLast=0;collapsible=1;marginBottom=0;whiteSpace=wrap;html=1;strokeColor=light-dark(#333135, #d176ff);fontColor=#095C86;fillColor=#FFFFFF;" vertex="1" parent="1">
          <mxGeometry x="300" y="740" width="160" height="68" as="geometry" />
        </mxCell>
        <mxCell id="X0fYnVSRhOy8A3_jzXu8-107" value="&lt;p style=&quot;color: rgb(0, 0, 0); text-wrap-mode: nowrap; margin: 0px 0px 0px 8px;&quot;&gt;khuyen_mai_id&lt;/p&gt;&lt;p style=&quot;color: rgb(0, 0, 0); text-wrap-mode: nowrap; margin: 0px 0px 0px 8px;&quot;&gt;hang_hoa_id: int(11)&lt;/p&gt;" style="text;strokeColor=none;fillColor=none;align=left;verticalAlign=top;spacingLeft=4;spacingRight=4;overflow=hidden;rotatable=0;points=[[0,0.5],[1,0.5]];portConstraint=eastwest;whiteSpace=wrap;html=1;fontColor=#095C86;" vertex="1" parent="X0fYnVSRhOy8A3_jzXu8-106">
          <mxGeometry y="26" width="160" height="34" as="geometry" />
        </mxCell>
        <mxCell id="X0fYnVSRhOy8A3_jzXu8-108" value="" style="line;strokeWidth=1;fillColor=none;align=left;verticalAlign=middle;spacingTop=-1;spacingLeft=3;spacingRight=3;rotatable=0;labelPosition=right;points=[];portConstraint=eastwest;strokeColor=inherit;fontColor=#095C86;" vertex="1" parent="X0fYnVSRhOy8A3_jzXu8-106">
          <mxGeometry y="60" width="160" height="8" as="geometry" />
        </mxCell>
        <mxCell id="X0fYnVSRhOy8A3_jzXu8-110" value="Khuyến mãi" style="swimlane;fontStyle=1;align=center;verticalAlign=top;childLayout=stackLayout;horizontal=1;startSize=26;horizontalStack=0;resizeParent=1;resizeParentMax=0;resizeLast=0;collapsible=1;marginBottom=0;whiteSpace=wrap;html=1;strokeColor=light-dark(#333135, #d176ff);fontColor=#095C86;fillColor=#FFFFFF;" vertex="1" parent="1">
          <mxGeometry x="570" y="870" width="160" height="160" as="geometry" />
        </mxCell>
        <mxCell id="X0fYnVSRhOy8A3_jzXu8-111" value="&lt;p style=&quot;color: rgb(0, 0, 0); text-wrap-mode: nowrap; margin: 0px 0px 0px 8px;&quot;&gt;id: int (11)&lt;/p&gt;&lt;p style=&quot;color: rgb(0, 0, 0); text-wrap-mode: nowrap; margin: 0px 0px 0px 8px;&quot;&gt;TenCT: varchar(100)&lt;/p&gt;&lt;p style=&quot;color: rgb(0, 0, 0); text-wrap-mode: nowrap; margin: 0px 0px 0px 8px;&quot;&gt;NgayBD: date&lt;/p&gt;&lt;p style=&quot;color: rgb(0, 0, 0); text-wrap-mode: nowrap; margin: 0px 0px 0px 8px;&quot;&gt;NgayKT: date&lt;/p&gt;&lt;p style=&quot;color: rgb(0, 0, 0); text-wrap-mode: nowrap; margin: 0px 0px 0px 8px;&quot;&gt;MucGiam: decimal(5,2)&lt;/p&gt;" style="text;strokeColor=none;fillColor=none;align=left;verticalAlign=top;spacingLeft=4;spacingRight=4;overflow=hidden;rotatable=0;points=[[0,0.5],[1,0.5]];portConstraint=eastwest;whiteSpace=wrap;html=1;fontColor=#095C86;" vertex="1" parent="X0fYnVSRhOy8A3_jzXu8-110">
          <mxGeometry y="26" width="160" height="64" as="geometry" />
        </mxCell>
        <mxCell id="X0fYnVSRhOy8A3_jzXu8-112" value="" style="line;strokeWidth=1;fillColor=none;align=left;verticalAlign=middle;spacingTop=-1;spacingLeft=3;spacingRight=3;rotatable=0;labelPosition=right;points=[];portConstraint=eastwest;strokeColor=inherit;fontColor=#095C86;" vertex="1" parent="X0fYnVSRhOy8A3_jzXu8-110">
          <mxGeometry y="90" width="160" height="20" as="geometry" />
        </mxCell>
        <mxCell id="X0fYnVSRhOy8A3_jzXu8-113" value="ThemCTKM: void&lt;div&gt;GanSPKM: boolean&lt;/div&gt;&lt;div&gt;ThietLapTG: boolean&lt;/div&gt;" style="text;strokeColor=none;fillColor=none;align=left;verticalAlign=top;spacingLeft=4;spacingRight=4;overflow=hidden;rotatable=0;points=[[0,0.5],[1,0.5]];portConstraint=eastwest;whiteSpace=wrap;html=1;fontColor=#095C86;" vertex="1" parent="X0fYnVSRhOy8A3_jzXu8-110">
          <mxGeometry y="110" width="160" height="50" as="geometry" />
        </mxCell>
        <mxCell id="X0fYnVSRhOy8A3_jzXu8-114" value="" style="endArrow=none;endSize=12;startArrow=diamondThin;startSize=14;startFill=0;edgeStyle=orthogonalEdgeStyle;rounded=0;labelBackgroundColor=none;strokeColor=#7F00FF;fontColor=default;exitX=0.508;exitY=1.009;exitDx=0;exitDy=0;exitPerimeter=0;entryX=0.5;entryY=0;entryDx=0;entryDy=0;" edge="1" parent="1" source="cm0d4Y98Hce47HyUnUgf-234" target="X0fYnVSRhOy8A3_jzXu8-106">
          <mxGeometry x="519.3599999999999" y="180" as="geometry">
            <mxPoint x="310" y="830" as="sourcePoint" />
            <mxPoint x="410" y="810" as="targetPoint" />
            <Array as="points">
              <mxPoint x="487" y="639" />
              <mxPoint x="380" y="639" />
            </Array>
          </mxGeometry>
        </mxCell>
        <mxCell id="X0fYnVSRhOy8A3_jzXu8-115" value="" style="endArrow=diamondThin;endSize=12;startArrow=none;startSize=14;startFill=0;edgeStyle=orthogonalEdgeStyle;rounded=0;labelBackgroundColor=none;strokeColor=#7F00FF;fontColor=default;exitX=0.5;exitY=0;exitDx=0;exitDy=0;entryX=0.461;entryY=0.66;entryDx=0;entryDy=0;entryPerimeter=0;endFill=1;" edge="1" parent="1" source="X0fYnVSRhOy8A3_jzXu8-110" target="X0fYnVSRhOy8A3_jzXu8-108">
          <mxGeometry x="519.3599999999999" y="180" as="geometry">
            <mxPoint x="270" y="850" as="sourcePoint" />
            <mxPoint x="425" y="783" as="targetPoint" />
            <Array as="points">
              <mxPoint x="650" y="830" />
              <mxPoint x="374" y="830" />
            </Array>
          </mxGeometry>
        </mxCell>
        <mxCell id="X0fYnVSRhOy8A3_jzXu8-118" value="Chi tiết phiếu trả&amp;nbsp;" style="swimlane;fontStyle=1;align=center;verticalAlign=top;childLayout=stackLayout;horizontal=1;startSize=30;horizontalStack=0;resizeParent=1;resizeParentMax=0;resizeLast=0;collapsible=1;marginBottom=0;whiteSpace=wrap;html=1;strokeColor=light-dark(#333135, #d176ff);fontColor=#095C86;fillColor=#FFFFFF;" vertex="1" parent="1">
          <mxGeometry x="510" y="40" width="160" height="128" as="geometry" />
        </mxCell>
        <mxCell id="X0fYnVSRhOy8A3_jzXu8-119" value="&lt;p style=&quot;color: rgb(0, 0, 0); text-wrap-mode: nowrap; margin: 0px 0px 0px 8px;&quot;&gt;phieu_tra_id: int(11)&lt;/p&gt;&lt;p style=&quot;color: rgb(0, 0, 0); text-wrap-mode: nowrap; margin: 0px 0px 0px 8px;&quot;&gt;hang_hoa_id: int(11)&lt;/p&gt;&lt;p style=&quot;color: rgb(0, 0, 0); text-wrap-mode: nowrap; margin: 0px 0px 0px 8px;&quot;&gt;Soluongtra: int(11)&lt;/p&gt;&lt;p style=&quot;color: rgb(0, 0, 0); text-wrap-mode: nowrap; margin: 0px 0px 0px 8px;&quot;&gt;DonGiaBan: decimal(18,1)&lt;/p&gt;&lt;p style=&quot;color: rgb(0, 0, 0); text-wrap-mode: nowrap; margin: 0px 0px 0px 8px;&quot;&gt;Lydotra: varchar(255)&lt;/p&gt;" style="text;strokeColor=none;fillColor=none;align=left;verticalAlign=top;spacingLeft=4;spacingRight=4;overflow=hidden;rotatable=0;points=[[0,0.5],[1,0.5]];portConstraint=eastwest;whiteSpace=wrap;html=1;fontColor=#095C86;" vertex="1" parent="X0fYnVSRhOy8A3_jzXu8-118">
          <mxGeometry y="30" width="160" height="90" as="geometry" />
        </mxCell>
        <mxCell id="X0fYnVSRhOy8A3_jzXu8-120" value="" style="line;strokeWidth=1;fillColor=none;align=left;verticalAlign=middle;spacingTop=-1;spacingLeft=3;spacingRight=3;rotatable=0;labelPosition=right;points=[];portConstraint=eastwest;strokeColor=inherit;fontColor=#095C86;" vertex="1" parent="X0fYnVSRhOy8A3_jzXu8-118">
          <mxGeometry y="120" width="160" height="8" as="geometry" />
        </mxCell>
        <mxCell id="X0fYnVSRhOy8A3_jzXu8-121" value="Phếu trả" style="swimlane;fontStyle=1;align=center;verticalAlign=top;childLayout=stackLayout;horizontal=1;startSize=26;horizontalStack=0;resizeParent=1;resizeParentMax=0;resizeLast=0;collapsible=1;marginBottom=0;whiteSpace=wrap;html=1;strokeColor=light-dark(#333135, #d176ff);fontColor=#095C86;fillColor=#FFFFFF;" vertex="1" parent="1">
          <mxGeometry x="775" y="-110" width="190" height="200" as="geometry" />
        </mxCell>
        <mxCell id="X0fYnVSRhOy8A3_jzXu8-122" value="&lt;p style=&quot;text-wrap-mode: nowrap; color: rgb(0, 0, 0); margin: 0px 0px 0px 8px;&quot;&gt;id: int(11)&lt;/p&gt;&lt;p style=&quot;text-wrap-mode: nowrap; color: rgb(0, 0, 0); margin: 0px 0px 0px 8px;&quot;&gt;NgayTra: date&lt;/p&gt;&lt;p style=&quot;text-wrap-mode: nowrap; color: rgb(0, 0, 0); margin: 0px 0px 0px 8px;&quot;&gt;khach_hang_id: int(11)&lt;/p&gt;&lt;p style=&quot;text-wrap-mode: nowrap; color: rgb(0, 0, 0); margin: 0px 0px 0px 8px;&quot;&gt;nhan_vien_id: int(11)&lt;/p&gt;&lt;p style=&quot;text-wrap-mode: nowrap; color: rgb(0, 0, 0); margin: 0px 0px 0px 8px;&quot;&gt;hoa_don_ban_hang_id: int(11)&lt;/p&gt;&lt;p style=&quot;text-wrap-mode: nowrap; color: rgb(0, 0, 0); margin: 0px 0px 0px 8px;&quot;&gt;Tongtienhoan: decimal(18,1)&lt;/p&gt;" style="text;strokeColor=none;fillColor=none;align=left;verticalAlign=top;spacingLeft=4;spacingRight=4;overflow=hidden;rotatable=0;points=[[0,0.5],[1,0.5]];portConstraint=eastwest;whiteSpace=wrap;html=1;fontColor=#095C86;" vertex="1" parent="X0fYnVSRhOy8A3_jzXu8-121">
          <mxGeometry y="26" width="190" height="104" as="geometry" />
        </mxCell>
        <mxCell id="X0fYnVSRhOy8A3_jzXu8-123" value="" style="line;strokeWidth=1;fillColor=none;align=left;verticalAlign=middle;spacingTop=-1;spacingLeft=3;spacingRight=3;rotatable=0;labelPosition=right;points=[];portConstraint=eastwest;strokeColor=inherit;fontColor=#095C86;" vertex="1" parent="X0fYnVSRhOy8A3_jzXu8-121">
          <mxGeometry y="130" width="190" height="8" as="geometry" />
        </mxCell>
        <mxCell id="X0fYnVSRhOy8A3_jzXu8-124" value="TaoPX(): int&lt;div&gt;ThemHangPX(): boolean&lt;/div&gt;&lt;div&gt;&lt;br&gt;&lt;/div&gt;" style="text;strokeColor=none;fillColor=none;align=left;verticalAlign=top;spacingLeft=4;spacingRight=4;overflow=hidden;rotatable=0;points=[[0,0.5],[1,0.5]];portConstraint=eastwest;whiteSpace=wrap;html=1;fontColor=#095C86;" vertex="1" parent="X0fYnVSRhOy8A3_jzXu8-121">
          <mxGeometry y="138" width="190" height="62" as="geometry" />
        </mxCell>
        <mxCell id="X0fYnVSRhOy8A3_jzXu8-125" value="" style="endArrow=open;endSize=12;startArrow=diamondThin;startSize=14;startFill=0;edgeStyle=orthogonalEdgeStyle;rounded=0;labelBackgroundColor=none;strokeColor=#7F00FF;fontColor=default;exitX=1;exitY=0.5;exitDx=0;exitDy=0;entryX=0.25;entryY=1;entryDx=0;entryDy=0;" edge="1" parent="1" source="cm0d4Y98Hce47HyUnUgf-232" target="cm0d4Y98Hce47HyUnUgf-235">
          <mxGeometry x="519.3599999999999" y="180" as="geometry">
            <mxPoint x="570" y="-50" as="sourcePoint" />
            <mxPoint x="725" y="-117" as="targetPoint" />
            <Array as="points">
              <mxPoint x="680" y="428" />
            </Array>
          </mxGeometry>
        </mxCell>
        <mxCell id="X0fYnVSRhOy8A3_jzXu8-126" value="" style="endArrow=open;endSize=12;startArrow=diamondThin;startSize=14;startFill=0;edgeStyle=orthogonalEdgeStyle;rounded=0;labelBackgroundColor=none;strokeColor=#7F00FF;fontColor=default;exitX=0.5;exitY=0;exitDx=0;exitDy=0;entryX=0.5;entryY=1;entryDx=0;entryDy=0;" edge="1" parent="1" source="cm0d4Y98Hce47HyUnUgf-231" target="X0fYnVSRhOy8A3_jzXu8-118">
          <mxGeometry x="519.3599999999999" y="180" as="geometry">
            <mxPoint x="590" y="-60" as="sourcePoint" />
            <mxPoint x="745" y="-127" as="targetPoint" />
            <Array as="points">
              <mxPoint x="485" y="260" />
              <mxPoint x="590" y="260" />
            </Array>
          </mxGeometry>
        </mxCell>
        <mxCell id="X0fYnVSRhOy8A3_jzXu8-127" value="" style="endArrow=diamondThin;endSize=12;startArrow=none;startSize=14;startFill=0;edgeStyle=orthogonalEdgeStyle;rounded=0;labelBackgroundColor=none;strokeColor=#7F00FF;fontColor=default;entryX=0.5;entryY=0;entryDx=0;entryDy=0;exitX=0;exitY=0.5;exitDx=0;exitDy=0;endFill=1;" edge="1" parent="1" source="X0fYnVSRhOy8A3_jzXu8-122" target="X0fYnVSRhOy8A3_jzXu8-118">
          <mxGeometry x="519.3599999999999" y="180" as="geometry">
            <mxPoint x="750" y="-30" as="sourcePoint" />
            <mxPoint x="590" y="22" as="targetPoint" />
            <Array as="points">
              <mxPoint x="590" y="-32" />
            </Array>
          </mxGeometry>
        </mxCell>
        <mxCell id="X0fYnVSRhOy8A3_jzXu8-129" value="" style="endArrow=open;endSize=12;startArrow=diamondThin;startSize=14;startFill=0;edgeStyle=orthogonalEdgeStyle;rounded=0;labelBackgroundColor=none;strokeColor=#7F00FF;fontColor=default;exitX=1;exitY=0;exitDx=0;exitDy=0;entryX=0;entryY=0.5;entryDx=0;entryDy=0;" edge="1" parent="1" source="cm0d4Y98Hce47HyUnUgf-206" target="cm0d4Y98Hce47HyUnUgf-225">
          <mxGeometry x="519.3599999999999" y="180" as="geometry">
            <mxPoint x="925.93" y="518.5" as="sourcePoint" />
            <mxPoint x="1030.93" y="336.5" as="targetPoint" />
            <Array as="points">
              <mxPoint x="1010" y="650" />
              <mxPoint x="1010" y="572" />
            </Array>
          </mxGeometry>
        </mxCell>
        <mxCell id="X0fYnVSRhOy8A3_jzXu8-130" value="0..n" style="resizable=0;align=left;verticalAlign=top;labelBackgroundColor=none;fontSize=10;strokeColor=#AF45ED;shadow=1;fillColor=#F694C1;fontColor=#095C86;" connectable="0" vertex="1" parent="1">
          <mxGeometry x="835" y="623" as="geometry">
            <mxPoint x="75" y="-13" as="offset" />
          </mxGeometry>
        </mxCell>
        <mxCell id="X0fYnVSRhOy8A3_jzXu8-131" value="1..1" style="resizable=0;align=left;verticalAlign=top;labelBackgroundColor=none;fontSize=10;strokeColor=#AF45ED;shadow=1;fillColor=#F694C1;fontColor=#095C86;" connectable="0" vertex="1" parent="1">
          <mxGeometry x="1050" y="530" as="geometry">
            <mxPoint x="-19" y="3" as="offset" />
          </mxGeometry>
        </mxCell>
        <mxCell id="X0fYnVSRhOy8A3_jzXu8-132" value="1..1" style="resizable=0;align=left;verticalAlign=top;labelBackgroundColor=none;fontSize=10;strokeColor=#AF45ED;shadow=1;fillColor=#F694C1;fontColor=#095C86;" connectable="0" vertex="1" parent="1">
          <mxGeometry x="1310" y="423" as="geometry">
            <mxPoint x="-19" y="3" as="offset" />
          </mxGeometry>
        </mxCell>
        <mxCell id="X0fYnVSRhOy8A3_jzXu8-138" style="edgeStyle=orthogonalEdgeStyle;rounded=0;orthogonalLoop=1;jettySize=auto;html=1;exitX=0.5;exitY=0;exitDx=0;exitDy=0;strokeColor=#7F00FF;fontColor=#095C86;fillColor=#F694C1;endArrow=none;startFill=0;entryX=1;entryY=0.5;entryDx=0;entryDy=0;endFill=1;endSize=12;startSize=14;startArrow=diamondThin;" edge="1" parent="1" source="cm0d4Y98Hce47HyUnUgf-202" target="X0fYnVSRhOy8A3_jzXu8-124">
          <mxGeometry relative="1" as="geometry">
            <mxPoint x="1300" y="30" as="sourcePoint" />
            <mxPoint x="1490" y="-166" as="targetPoint" />
            <Array as="points">
              <mxPoint x="1000" y="59" />
            </Array>
          </mxGeometry>
        </mxCell>
        <mxCell id="X0fYnVSRhOy8A3_jzXu8-140" value="1..n" style="resizable=0;align=left;verticalAlign=top;labelBackgroundColor=none;fontSize=10;strokeColor=#AF45ED;shadow=1;fillColor=#F694C1;fontColor=#095C86;" connectable="0" vertex="1" parent="1">
          <mxGeometry x="1160" y="380" as="geometry">
            <mxPoint x="-15" y="10" as="offset" />
          </mxGeometry>
        </mxCell>
        <mxCell id="X0fYnVSRhOy8A3_jzXu8-141" value="1..n" style="resizable=0;align=left;verticalAlign=top;labelBackgroundColor=none;fontSize=10;strokeColor=#AF45ED;shadow=1;fillColor=#F694C1;fontColor=#095C86;" connectable="0" vertex="1" parent="1">
          <mxGeometry x="1130" y="300" as="geometry">
            <mxPoint x="-15" y="10" as="offset" />
          </mxGeometry>
        </mxCell>
        <mxCell id="X0fYnVSRhOy8A3_jzXu8-146" style="edgeStyle=orthogonalEdgeStyle;rounded=0;orthogonalLoop=1;jettySize=auto;html=1;exitX=1;exitY=0.5;exitDx=0;exitDy=0;strokeColor=#7F00FF;fontColor=#095C86;fillColor=#F694C1;endArrow=none;startFill=1;entryX=0;entryY=0.5;entryDx=0;entryDy=0;endFill=1;endSize=12;startSize=14;startArrow=diamondThin;" edge="1" parent="1" source="X0fYnVSRhOy8A3_jzXu8-122" target="X0fYnVSRhOy8A3_jzXu8-160">
          <mxGeometry relative="1" as="geometry">
            <mxPoint x="1210" y="-180" as="sourcePoint" />
            <mxPoint x="1340" y="-12" as="targetPoint" />
            <Array as="points" />
          </mxGeometry>
        </mxCell>
        <mxCell id="X0fYnVSRhOy8A3_jzXu8-148" style="edgeStyle=orthogonalEdgeStyle;rounded=0;orthogonalLoop=1;jettySize=auto;html=1;exitX=1;exitY=0.5;exitDx=0;exitDy=0;strokeColor=#7F00FF;fontColor=#095C86;fillColor=#F694C1;endArrow=none;startFill=0;entryX=0;entryY=0.5;entryDx=0;entryDy=0;endFill=1;endSize=12;startSize=14;startArrow=none;" edge="1" parent="1" source="cm0d4Y98Hce47HyUnUgf-203" target="X0fYnVSRhOy8A3_jzXu8-164">
          <mxGeometry relative="1" as="geometry">
            <mxPoint x="1110" y="285" as="sourcePoint" />
            <mxPoint x="1350" y="185" as="targetPoint" />
            <Array as="points">
              <mxPoint x="1100" y="270" />
              <mxPoint x="1270" y="270" />
              <mxPoint x="1270" y="56" />
            </Array>
          </mxGeometry>
        </mxCell>
        <mxCell id="X0fYnVSRhOy8A3_jzXu8-149" value="0..n" style="resizable=0;align=left;verticalAlign=top;labelBackgroundColor=none;fontSize=10;strokeColor=#AF45ED;shadow=1;fillColor=#F694C1;fontColor=#095C86;" connectable="0" vertex="1" parent="1">
          <mxGeometry x="1195" y="250" as="geometry">
            <mxPoint x="-79" y="-12" as="offset" />
          </mxGeometry>
        </mxCell>
        <mxCell id="X0fYnVSRhOy8A3_jzXu8-150" value="1..1" style="resizable=0;align=left;verticalAlign=top;labelBackgroundColor=none;fontSize=10;strokeColor=#AF45ED;shadow=1;fillColor=#F694C1;fontColor=#095C86;" connectable="0" vertex="1" parent="1">
          <mxGeometry x="1250" y="110" as="geometry">
            <mxPoint x="72" y="-93" as="offset" />
          </mxGeometry>
        </mxCell>
        <mxCell id="X0fYnVSRhOy8A3_jzXu8-151" value="0..n" style="resizable=0;align=left;verticalAlign=top;labelBackgroundColor=none;fontSize=10;strokeColor=#AF45ED;shadow=1;fillColor=#F694C1;fontColor=#095C86;" connectable="0" vertex="1" parent="1">
          <mxGeometry x="1060" y="-50" as="geometry">
            <mxPoint x="-79" y="-12" as="offset" />
          </mxGeometry>
        </mxCell>
        <mxCell id="X0fYnVSRhOy8A3_jzXu8-152" value="1..1" style="resizable=0;align=left;verticalAlign=top;labelBackgroundColor=none;fontSize=10;strokeColor=#AF45ED;shadow=1;fillColor=#F694C1;fontColor=#095C86;" connectable="0" vertex="1" parent="1">
          <mxGeometry x="1230" y="28" as="geometry">
            <mxPoint x="72" y="-93" as="offset" />
          </mxGeometry>
        </mxCell>
        <mxCell id="X0fYnVSRhOy8A3_jzXu8-153" value="0..n" style="resizable=0;align=left;verticalAlign=top;labelBackgroundColor=none;fontSize=10;strokeColor=#AF45ED;shadow=1;fillColor=#F694C1;fontColor=#095C86;" connectable="0" vertex="1" parent="1">
          <mxGeometry x="1060" y="40" as="geometry">
            <mxPoint x="-79" y="-12" as="offset" />
          </mxGeometry>
        </mxCell>
        <mxCell id="X0fYnVSRhOy8A3_jzXu8-154" value="1..1" style="resizable=0;align=left;verticalAlign=top;labelBackgroundColor=none;fontSize=10;strokeColor=#AF45ED;shadow=1;fillColor=#F694C1;fontColor=#095C86;" connectable="0" vertex="1" parent="1">
          <mxGeometry x="1059" y="137" as="geometry">
            <mxPoint x="-19" y="3" as="offset" />
          </mxGeometry>
        </mxCell>
        <mxCell id="X0fYnVSRhOy8A3_jzXu8-155" value="0..n" style="resizable=0;align=left;verticalAlign=top;labelBackgroundColor=none;fontSize=10;strokeColor=#AF45ED;shadow=1;fillColor=#F694C1;fontColor=#095C86;" connectable="0" vertex="1" parent="1">
          <mxGeometry x="310" y="720" as="geometry">
            <mxPoint x="75" y="-13" as="offset" />
          </mxGeometry>
        </mxCell>
        <mxCell id="X0fYnVSRhOy8A3_jzXu8-156" value="0..n" style="resizable=0;align=left;verticalAlign=top;labelBackgroundColor=none;fontSize=10;strokeColor=#AF45ED;shadow=1;fillColor=#F694C1;fontColor=#095C86;" connectable="0" vertex="1" parent="1">
          <mxGeometry x="310" y="850" as="geometry">
            <mxPoint x="75" y="-13" as="offset" />
          </mxGeometry>
        </mxCell>
        <mxCell id="X0fYnVSRhOy8A3_jzXu8-157" value="1..1" style="resizable=0;align=left;verticalAlign=top;labelBackgroundColor=none;fontSize=10;strokeColor=#AF45ED;shadow=1;fillColor=#F694C1;fontColor=#095C86;" connectable="0" vertex="1" parent="1">
          <mxGeometry x="510" y="590" as="geometry">
            <mxPoint x="-15" y="10" as="offset" />
          </mxGeometry>
        </mxCell>
        <mxCell id="X0fYnVSRhOy8A3_jzXu8-158" value="1..1" style="resizable=0;align=left;verticalAlign=top;labelBackgroundColor=none;fontSize=10;strokeColor=#AF45ED;shadow=1;fillColor=#F694C1;fontColor=#095C86;" connectable="0" vertex="1" parent="1">
          <mxGeometry x="640" y="830" as="geometry">
            <mxPoint x="-15" y="10" as="offset" />
          </mxGeometry>
        </mxCell>
        <mxCell id="X0fYnVSRhOy8A3_jzXu8-159" value="Khuyến mãi" style="swimlane;fontStyle=1;align=center;verticalAlign=top;childLayout=stackLayout;horizontal=1;startSize=26;horizontalStack=0;resizeParent=1;resizeParentMax=0;resizeLast=0;collapsible=1;marginBottom=0;whiteSpace=wrap;html=1;strokeColor=light-dark(#333135, #d176ff);fontColor=#095C86;fillColor=#FFFFFF;" vertex="1" parent="1">
          <mxGeometry x="1370" y="-90" width="250" height="160" as="geometry" />
        </mxCell>
        <mxCell id="X0fYnVSRhOy8A3_jzXu8-160" value="&lt;p style=&quot;color: rgb(0, 0, 0); text-wrap-mode: nowrap; margin: 0px 0px 0px 8px;&quot;&gt;id: int(11)&lt;/p&gt;&lt;p style=&quot;color: rgb(0, 0, 0); text-wrap-mode: nowrap; margin: 0px 0px 0px 8px;&quot;&gt;TenKH: varchar(255)&lt;/p&gt;&lt;p style=&quot;color: rgb(0, 0, 0); text-wrap-mode: nowrap; margin: 0px 0px 0px 8px;&quot;&gt;SDT: int(11)&lt;/p&gt;" style="text;strokeColor=none;fillColor=none;align=left;verticalAlign=top;spacingLeft=4;spacingRight=4;overflow=hidden;rotatable=0;points=[[0,0.5],[1,0.5]];portConstraint=eastwest;whiteSpace=wrap;html=1;fontColor=#095C86;" vertex="1" parent="X0fYnVSRhOy8A3_jzXu8-159">
          <mxGeometry y="26" width="250" height="54" as="geometry" />
        </mxCell>
        <mxCell id="X0fYnVSRhOy8A3_jzXu8-161" value="" style="line;strokeWidth=1;fillColor=none;align=left;verticalAlign=middle;spacingTop=-1;spacingLeft=3;spacingRight=3;rotatable=0;labelPosition=right;points=[];portConstraint=eastwest;strokeColor=inherit;fontColor=#095C86;" vertex="1" parent="X0fYnVSRhOy8A3_jzXu8-159">
          <mxGeometry y="80" width="250" height="20" as="geometry" />
        </mxCell>
        <mxCell id="X0fYnVSRhOy8A3_jzXu8-164" value="tinhdDiemTichLuy(tongtien:&amp;nbsp; double):int&lt;div&gt;capnhatDiem(diem: int): void&lt;/div&gt;&lt;div&gt;layTenKH(): string&lt;/div&gt;" style="text;strokeColor=none;fillColor=none;align=left;verticalAlign=top;spacingLeft=4;spacingRight=4;overflow=hidden;rotatable=0;points=[[0,0.5],[1,0.5]];portConstraint=eastwest;whiteSpace=wrap;html=1;fontColor=#095C86;" vertex="1" parent="X0fYnVSRhOy8A3_jzXu8-159">
          <mxGeometry y="100" width="250" height="60" as="geometry" />
        </mxCell>
      </root>
    </mxGraphModel>
  </diagram>
</mxfile>
